<svg width="40" height="40" xmlns="http://www.w3.org/2000/svg" fill="none">

 <g>
  <title>Layer 1</title>
  <path id="svg_1" fill="#fff" d="m26.40511,37.3484l0.23002,-1.52639l-5.47926,-0.4576s0.27465,-1.2224 0.27465,-2.74879l0,-26.19189l0.60423,-0.56l4.98489,0c4.16095,0 5.9702,1.0176 5.80198,6.20797l2.02898,0l1.6994,-8.79996s-1.6994,0.304 -3.94809,0.304l-26.22906,0c-2.2487,0 -3.67344,-0.304 -3.67344,-0.304l-1.6994,8.79996l1.97061,0c2.13884,-5.19038 3.77987,-6.20797 7.44988,-6.20797l5.09475,0l0,26.75189c0,1.83359 -1.42475,3.05279 -3.77644,3.30879l0,1.72799"/>
 </g>
</svg>